#!OML:ASF F:\VICON\USERDATA\INSTALL\rory3\rory3.ASF
:FULLY-SPECIFIED
:DEGREES
80
root -0.578484 18.4607 12.6927 5.83724 -2.31298 -10.8183
lowerback 13.952 1.57026 10.2024
upperback 1.23506 3.72739 1.16757
thorax -5.94433 1.57846 -5.19019
lowerneck -7.93034 0.340212 0.373644
upperneck -7.40961 0.364167 -1.85438
head -0.97077 0.187293 -0.623831
rclavicle -6.13251e-014 -5.1684e-015
rhumerus -28.9609 28.4018 -84.9461
rradius 111.479
rwrist -5.97935
rhand -34.9581 32.7631
rfingers 7.12502
rthumb -8.10431 2.93853
lclavicle -6.13251e-014 -5.1684e-015
lhumerus -53.5252 -7.19667 91.4595
lradius 112.706
lwrist 26.8759
lhand -37.0706 7.77003
lfingers 7.12502
lthumb -10.1428 37.5055
rfemur 21.5574 9.5985 36.6831
rtibia 39.6499
rfoot 32.2984 -7.72768
rtoes 20.8658
lfemur -35.9373 -1.97248 -7.87968
ltibia 27.5879
lfoot 2.45414 1.92068
ltoes -22.849
81
root -0.598192 18.3947 13.1554 5.74199 -0.676763 -10.341
lowerback 14.3663 1.0186 9.62037
upperback 1.04606 2.9642 1.03442
thorax -6.52328 1.18308 -4.90144
lowerneck -7.16847 0.434387 0.270726
upperneck -8.07391 0.512674 -1.30841
head -1.30108 0.266728 -0.442137
rclavicle 1.5704e-014 2.18663e-014
rhumerus -30.5601 28.169 -86.0214
rradius 110.228
rwrist -6.14691
rhand -35.1579 30.8886
rfingers 7.12502
rthumb -8.2972 1.07158
lclavicle 1.5704e-014 2.18663e-014
lhumerus -52.1642 -7.66869 91.234
lradius 112.523
lwrist 27.313
lhand -36.6218 6.91438
lfingers 7.12502
lthumb -9.70974 36.6706
rfemur 19.1482 7.77825 36.3609
rtibia 45.1698
rfoot 32.7911 -10.2037
rtoes 20.3374
lfemur -35.7004 -2.162 -8.96812
ltibia 26.8414
lfoot 3.32014 2.03657
ltoes -22.2398
82
root -0.600248 18.3272 13.6971 5.98935 -0.971995 -10.0112
lowerback 13.8462 1.15035 8.9561
upperback 0.884674 2.97172 0.826296
thorax -6.42684 1.20395 -4.73421
lowerneck -6.27439 0.453047 0.336011
upperneck -8.60505 0.54981 -0.927085
head -1.61761 0.282883 -0.340496
rclavicle 7.25564e-015 3.77691e-014
rhumerus -32.2977 27.8694 -87.1546
rradius 108.752
rwrist -6.66318
rhand -35.6788 30.9725
rfingers 7.12502
rthumb -8.79983 1.17594
lclavicle 7.25564e-015 3.77691e-014
lhumerus -50.8997 -8.20352 90.9495
lradius 112.41
lwrist 28.0233
lhand -36.5082 7.12237
lfingers 7.12502
lthumb -9.60019 36.8836
rfemur 16.7414 7.63018 35.747
rtibia 50.7328
rfoot 33.5951 -11.8936
rtoes 22.3364
lfemur -34.9046 -1.3327 -9.78849
ltibia 26.4717
lfoot 3.63219 2.45714
ltoes -22.1353
83
root -0.606642 18.2414 14.2226 5.74574 -0.934108 -9.57077
lowerback 13.9769 1.12947 8.14922
upperback 0.894585 2.82216 0.696381
thorax -6.54091 1.1476 -4.39926
lowerneck -6.21061 0.433125 0.361675
upperneck -8.40122 0.537368 -0.653413
head -1.56355 0.27177 -0.259446
rclavicle -4.17448e-014 2.94201e-014
rhumerus -33.6441 27.4051 -87.9243
rradius 107.193
rwrist -6.95192
rhand -36.2243 30.165
rfingers 7.12502
rthumb -9.32619 0.391268
lclavicle -4.17448e-014 2.94201e-014
lhumerus -49.1476 -8.75576 90.7421
lradius 112.108
lwrist 28.8445
lhand -36.2753 7.49458
lfingers 7.12502
lthumb -9.37545 37.2661
rfemur 14.718 6.9141 35.0492
rtibia 56.2899
rfoot 34.4579 -13.1038
rtoes 21.909
lfemur -33.7359 -0.665849 -10.8119
ltibia 26.4638
lfoot 4.23822 1.5662
ltoes -20.6705
84
root -0.604141 18.1379 14.7451 5.04258 -0.438591 -8.55315
lowerback 14.4217 0.939392 6.99684
upperback 1.13925 2.3984 0.459877
thorax -6.61601 0.974265 -3.93789
lowerneck -6.52164 0.40232 0.198148
upperneck -8.01917 0.520848 -0.330912
head -1.39159 0.263411 -0.130989
rclavicle 3.1408e-014 -6.36111e-015
rhumerus -34.78 26.7906 -88.4286
rradius 105.72
rwrist -7.33939
rhand -36.4985 29.8215
rfingers 7.12502
rthumb -9.59077 0.05976
lclavicle 3.1408e-014 -6.36111e-015
lhumerus -47.0843 -9.44878 90.571
lradius 111.842
lwrist 29.729
lhand -36.6065 7.6227
lfingers 7.12502
lthumb -9.69504 37.3796
rfemur 13.1975 5.40471 33.5351
rtibia 61.6295
rfoot 35.1215 -13.4162
rtoes 25.2184
lfemur -32.3637 -0.0499511 -12.7203
ltibia 27.147
lfoot 4.49414 -1.29858
ltoes -17.7949
